<?xml version="1.0" encoding="UTF-8" standalone="no" ?>
<!DOCTYPE svg PUBLIC "-//W3C//DTD SVG 1.1//EN" "http://www.w3.org/Graphics/SVG/1.1/DTD/svg11.dtd">
<svg xmlns="http://www.w3.org/2000/svg" xmlns:xlink="http://www.w3.org/1999/xlink" version="1.1" width="1080" height="1080" viewBox="0 0 1080 1080" xml:space="preserve">
<desc>Created with Fabric.js 5.2.4</desc>
<defs>
</defs>
<rect x="0" y="0" width="100%" height="100%" fill="transparent"></rect>
<g transform="matrix(1 0 0 1 540 540)" id="a8db2de5-91e4-4e3f-bd1f-e9787a66aab6"  >
</g>
<g transform="matrix(1 0 0 1 540 540)" id="0500e82d-be08-4ce4-a84b-d63018aca845"  >
<rect style="stroke: none; stroke-width: 1; stroke-dasharray: none; stroke-linecap: butt; stroke-dashoffset: 0; stroke-linejoin: miter; stroke-miterlimit: 4; fill: rgb(255,255,255); fill-rule: nonzero; opacity: 1; visibility: hidden;" vector-effect="non-scaling-stroke"  x="-540" y="-540" rx="0" ry="0" width="1080" height="1080" />
</g>
<g transform="matrix(0.49 0 0 -0.49 408.58 540)"  >
<path style="stroke: none; stroke-width: 1; stroke-dasharray: none; stroke-linecap: butt; stroke-dashoffset: 0; stroke-linejoin: miter; stroke-miterlimit: 4; fill: rgb(21,78,193); fill-rule: nonzero; opacity: 1;" vector-effect="non-scaling-stroke"  transform=" translate(-2595.5, -5119.01)" d="M 2990 5968 C 2774 5907 2251 5746 2230 5735 C 2195 5717 2169 5663 2133 5536 C 2108 5444 2103 5436 2073 5424 C 2055 5416 2038 5410 2035 5410 C 2032 5410 2030 5452 2030 5503 C 2030 5618 2019 5644 1966 5648 C 1915 5652 1859 5615 1831 5558 C 1811 5515 1810 5501 1810 5115 C 1810 4730 1811 4715 1831 4673 C 1857 4619 1912 4580 1961 4580 C 2016 4580 2024 4597 2029 4722 C 2032 4828 2033 4830 2054 4824 C 2092 4813 2108 4786 2144 4668 C 2192 4513 2205 4498 2328 4461 C 2639 4367 3014 4260 3034 4260 C 3110 4260 3120 4289 3120 4509 L 3120 4689 L 3192 4692 L 3263 4695 L 3291 4785 C 3326 4894 3324 4920 3289 4824 L 3263 4755 L 3186 4752 L 3108 4749 L 3112 4989 C 3114 5121 3112 5226 3109 5222 C 3105 5218 3054 5145 2995 5060 C 2936 4975 2883 4899 2876 4892 C 2866 4882 2839 4915 2744 5051 L 2625 5222 L 2622 4987 L 2620 4752 L 2527 4748 C 2477 4745 2433 4744 2430 4745 C 2427 4747 2426 4926 2428 5144 L 2430 5541 L 2528 5538 L 2625 5535 L 2741 5365 C 2806 5272 2863 5195 2869 5195 C 2875 5195 2929 5270 2990 5363 L 3099 5530 L 3215 5530 L 3330 5530 L 3331 5358 L 3332 5185 L 3350 5325 C 3359 5402 3370 5494 3374 5529 L 3381 5593 L 3251 5588 L 3120 5582 L 3120 5746 C 3120 5926 3114 5953 3067 5970 C 3033 5981 3037 5981 2990 5968 z" stroke-linecap="round" />
</g>
<g transform="matrix(0.73 0 0 -0.73 868.24 648.98)"  >
<path style="stroke: none; stroke-width: 1; stroke-dasharray: none; stroke-linecap: butt; stroke-dashoffset: 0; stroke-linejoin: miter; stroke-miterlimit: 4; fill: rgb(21,78,193); fill-rule: nonzero; opacity: 1;" vector-effect="non-scaling-stroke"  transform=" translate(-3647.87, -4910.13)" d="M 3389 5231 C 3395 5221 3440 5113 3489 4990 C 3563 4809 3578 4764 3569 4748 C 3558 4727 3503 4700 3472 4700 C 3458 4700 3449 4686 3437 4640 C 3427 4607 3420 4577 3420 4574 C 3420 4570 3455 4569 3499 4572 C 3591 4577 3631 4597 3672 4655 C 3694 4686 3910 5223 3910 5246 C 3910 5248 3873 5250 3828 5248 L 3747 5245 L 3702 5113 C 3678 5040 3655 4980 3650 4980 C 3642 4980 3550 5219 3550 5240 C 3550 5246 3515 5250 3465 5250 C 3385 5250 3380 5249 3389 5231 z" stroke-linecap="round" />
</g>
<g transform="matrix(NaN NaN NaN NaN 0 0)"  >
<g style=""   >
</g>
</g>
<g transform="matrix(NaN NaN NaN NaN 0 0)"  >
<g style=""   >
</g>
</g>
<g transform="matrix(NaN NaN NaN NaN 0 0)"  >
<g style=""   >
</g>
</g>
</svg>