<?xml version="1.0" standalone="no"?>
<!DOCTYPE svg PUBLIC "-//W3C//DTD SVG 20010904//EN"
 "http://www.w3.org/TR/2001/REC-SVG-20010904/DTD/svg10.dtd">
<svg xmlns="http://www.w3.org/2000/svg" version="1.0" width="661.8121337890625" height="171.80157470703125" viewBox="181 426.19842529296875 661.8121337890625 171.80157470703125" preserveAspectRatio="xMidYMid meet">
<g transform="translate(0.000000,1024.000000) scale(0.100000,-0.100000)" fill="currentColor" stroke="none">
<path d="M2990 5968 c-216 -61 -739 -222 -760 -233 -35 -18 -61 -72 -97 -199 -25 -92 -30 -100 -60 -112 -18 -8 -35 -14 -38 -14 -3 0 -5 42 -5 93 0 115 -11 141 -64 145 -51 4 -107 -33 -135 -90 -20 -43 -21 -57 -21 -443 0 -385 1 -400 21 -442 26 -54 81 -93 130 -93 55 0 63 17 68 142 3 106 4 108 25 102 38 -11 54 -38 90 -156 48 -155 61 -170 184 -207 311 -94 686 -201 706 -201 76 0 86 29 86 249 l0 180 72 3 71 3 28 90 c35 109 33 135 -2 39 l-26 -69 -77 -3 -78 -3 4 240 c2 132 0 237 -3 233 -4 -4 -55 -77 -114 -162 -59 -85 -112 -161 -119 -168 -10 -10 -37 23 -132 159 l-119 171 -3 -235 -2 -235 -93 -4 c-50 -3 -94 -4 -97 -3 -3 2 -4 181 -2 399 l2 397 98 -3 97 -3 116 -170 c65 -93 122 -170 128 -170 6 0 60 75 121 168 l109 167 116 0 115 0 1 -172 1 -173 18 140 c9 77 20 169 24 204 l7 64 -130 -5 -131 -6 0 164 c0 180 -6 207 -53 224 -34 11 -30 11 -77 -2z"/>
<path d="M5863 5456 c-22 -19 -28 -33 -28 -64 0 -68 49 -100 121 -80 38 10 54 33 54 77 0 43 -9 60 -41 76 -40 21 -74 18 -106 -9z"/>
<path d="M4430 5400 c-16 -29 -250 -612 -250 -622 0 -4 36 -8 79 -8 l79 0 27 70 27 70 131 0 132 0 26 -67 26 -68 83 -3 c64 -2 81 0 77 10 -2 7 -58 146 -124 308 -66 162 -122 303 -126 313 -5 14 -20 17 -91 17 -75 0 -87 -2 -96 -20z m133 -262 c19 -48 32 -89 29 -92 -9 -9 -142 -7 -142 2 0 5 11 37 25 73 39 97 45 112 49 108 2 -2 20 -43 39 -91z"/>
<path d="M6600 5315 l0 -65 -35 0 -35 0 0 -60 0 -60 35 0 35 0 0 -120 c0 -79 5 -132 14 -153 19 -48 67 -83 121 -92 54 -8 149 11 142 29 -2 6 -10 34 -17 62 l-13 52 -40 -6 c-58 -7 -67 10 -67 124 l0 93 53 3 52 3 3 63 3 62 -51 0 -50 0 0 65 0 65 -75 0 -75 0 0 -65z"/>
<path d="M8158 5318 c-3 -63 -3 -63 -35 -66 l-33 -3 0 -60 0 -59 35 0 35 0 0 -120 c0 -129 10 -171 51 -209 45 -42 157 -51 204 -17 16 11 17 18 5 64 l-12 52 -44 0 c-58 0 -65 16 -62 133 l3 92 48 3 47 3 0 60 0 59 -50 0 -50 0 0 65 0 65 -70 0 -69 0 -3 -62z"/>
<path d="M7767 5256 c-20 -7 -44 -19 -52 -26 -12 -10 -15 -9 -15 4 0 13 -12 16 -75 16 l-75 0 0 -240 0 -240 75 0 75 0 0 155 c0 152 1 156 25 180 32 33 83 34 113 2 21 -22 22 -33 22 -180 l0 -157 76 0 76 0 -4 178 c-3 156 -5 182 -24 217 -41 79 -139 120 -217 91z"/>
<path d="M5030 5249 c-69 -28 -110 -106 -90 -177 14 -53 47 -80 137 -112 82 -29 101 -50 63 -70 -26 -14 -73 0 -107 32 l-22 21 -35 -29 c-50 -41 -53 -60 -20 -95 37 -38 121 -63 186 -56 105 13 158 63 158 150 0 87 -32 120 -157 161 -45 15 -53 21 -53 42 0 21 4 24 38 24 21 0 48 -7 60 -16 22 -15 24 -14 57 23 19 21 34 44 35 51 0 7 -24 24 -52 37 -57 27 -150 33 -198 14z"/>
<path d="M5468 5239 c-62 -32 -92 -98 -77 -169 11 -49 56 -85 137 -110 82 -24 101 -40 76 -65 -24 -24 -79 -13 -116 22 l-28 27 -42 -41 c-38 -38 -41 -44 -30 -67 20 -44 86 -71 177 -71 88 0 131 17 167 66 25 33 33 97 19 142 -15 43 -52 69 -148 101 -76 25 -91 48 -48 68 24 11 33 9 68 -10 l41 -22 37 36 c45 44 41 62 -24 93 -58 28 -157 28 -209 0z"/>
<path d="M6176 5237 c-47 -27 -76 -77 -76 -134 0 -83 34 -117 148 -149 68 -18 85 -36 59 -61 -19 -20 -74 -11 -111 18 l-26 20 -40 -33 c-22 -18 -40 -37 -40 -41 0 -22 25 -49 63 -69 58 -31 186 -33 236 -3 44 26 70 62 77 107 14 87 -25 136 -137 173 -70 24 -80 30 -77 49 4 28 59 34 95 11 25 -17 26 -16 65 23 l40 39 -22 21 c-61 57 -182 71 -254 29z"/>
<path d="M7044 5241 c-74 -34 -134 -135 -134 -226 0 -111 82 -223 180 -244 77 -17 138 -3 188 42 l22 20 0 -31 0 -32 70 0 70 0 0 240 0 240 -70 0 c-68 0 -70 -1 -70 -25 l0 -25 -47 30 c-39 25 -57 30 -107 30 -38 0 -77 -8 -102 -19z m211 -141 c71 -67 18 -200 -78 -200 -114 0 -154 159 -55 217 33 19 104 10 133 -17z"/>
<path d="M3389 5231 c6 -10 51 -118 100 -241 74 -181 89 -226 80 -242 -11 -21 -66 -48 -97 -48 -14 0 -23 -14 -35 -60 -10 -33 -17 -63 -17 -66 0 -4 35 -5 79 -2 92 5 132 25 173 83 22 31 238 568 238 591 0 2 -37 4 -82 2 l-81 -3 -45 -132 c-24 -73 -47 -133 -52 -133 -8 0 -100 239 -100 260 0 6 -35 10 -85 10 -80 0 -85 -1 -76 -19z"/>
<path d="M5857 5243 c-4 -3 -7 -111 -7 -240 l0 -233 75 0 75 0 0 240 0 240 -68 0 c-38 0 -72 -3 -75 -7z"/>
</g>
</svg>